<svg id="visual" viewBox="0 0 900 600" width="900" height="600" xmlns="http://www.w3.org/2000/svg" xmlns:xlink="http://www.w3.org/1999/xlink" version="1.1"><rect x="0" y="0" width="900" height="600" fill="#001122"></rect><g transform="translate(457.1813480786168 318.7747180095225)"><path d="M158 -178.6C195.6 -156.8 210.6 -98.3 204.6 -48.5C198.6 1.3 171.6 42.4 144.9 79.1C118.3 115.8 92 148.1 59.3 157.7C26.7 167.3 -12.3 154.1 -58.8 144.5C-105.2 135 -159.1 129 -188.5 98.8C-217.9 68.6 -222.7 14.3 -219.3 -44.5C-215.9 -103.3 -204.4 -166.6 -166.5 -188.4C-128.6 -210.2 -64.3 -190.6 -2 -188.2C60.2 -185.8 120.4 -200.5 158 -178.6" fill="#FCAF3C"></path></g></svg>