<svg id="visual" viewBox="0 0 900 600" width="900" height="600" xmlns="http://www.w3.org/2000/svg" xmlns:xlink="http://www.w3.org/1999/xlink" version="1.1"><rect x="0" y="0" width="900" height="600" fill="#001220"></rect><defs><linearGradient id="grad1_0" x1="33.3%" y1="100%" x2="100%" y2="0%"><stop offset="20%" stop-color="#fbae3c" stop-opacity="1"></stop><stop offset="80%" stop-color="#fbae3c" stop-opacity="1"></stop></linearGradient></defs><defs><linearGradient id="grad1_1" x1="33.3%" y1="100%" x2="100%" y2="0%"><stop offset="20%" stop-color="#fbae3c" stop-opacity="1"></stop><stop offset="80%" stop-color="#eb7458" stop-opacity="1"></stop></linearGradient></defs><defs><linearGradient id="grad1_2" x1="33.3%" y1="100%" x2="100%" y2="0%"><stop offset="20%" stop-color="#b84e6c" stop-opacity="1"></stop><stop offset="80%" stop-color="#eb7458" stop-opacity="1"></stop></linearGradient></defs><defs><linearGradient id="grad1_3" x1="33.3%" y1="100%" x2="100%" y2="0%"><stop offset="20%" stop-color="#b84e6c" stop-opacity="1"></stop><stop offset="80%" stop-color="#713c69" stop-opacity="1"></stop></linearGradient></defs><defs><linearGradient id="grad1_4" x1="33.3%" y1="100%" x2="100%" y2="0%"><stop offset="20%" stop-color="#2d2b4c" stop-opacity="1"></stop><stop offset="80%" stop-color="#713c69" stop-opacity="1"></stop></linearGradient></defs><defs><linearGradient id="grad1_5" x1="33.3%" y1="100%" x2="100%" y2="0%"><stop offset="20%" stop-color="#2d2b4c" stop-opacity="1"></stop><stop offset="80%" stop-color="#001220" stop-opacity="1"></stop></linearGradient></defs><defs><linearGradient id="grad2_0" x1="0%" y1="100%" x2="66.7%" y2="0%"><stop offset="20%" stop-color="#fbae3c" stop-opacity="1"></stop><stop offset="80%" stop-color="#fbae3c" stop-opacity="1"></stop></linearGradient></defs><defs><linearGradient id="grad2_1" x1="0%" y1="100%" x2="66.7%" y2="0%"><stop offset="20%" stop-color="#eb7458" stop-opacity="1"></stop><stop offset="80%" stop-color="#fbae3c" stop-opacity="1"></stop></linearGradient></defs><defs><linearGradient id="grad2_2" x1="0%" y1="100%" x2="66.7%" y2="0%"><stop offset="20%" stop-color="#eb7458" stop-opacity="1"></stop><stop offset="80%" stop-color="#b84e6c" stop-opacity="1"></stop></linearGradient></defs><defs><linearGradient id="grad2_3" x1="0%" y1="100%" x2="66.7%" y2="0%"><stop offset="20%" stop-color="#713c69" stop-opacity="1"></stop><stop offset="80%" stop-color="#b84e6c" stop-opacity="1"></stop></linearGradient></defs><defs><linearGradient id="grad2_4" x1="0%" y1="100%" x2="66.7%" y2="0%"><stop offset="20%" stop-color="#713c69" stop-opacity="1"></stop><stop offset="80%" stop-color="#2d2b4c" stop-opacity="1"></stop></linearGradient></defs><defs><linearGradient id="grad2_5" x1="0%" y1="100%" x2="66.7%" y2="0%"><stop offset="20%" stop-color="#001220" stop-opacity="1"></stop><stop offset="80%" stop-color="#2d2b4c" stop-opacity="1"></stop></linearGradient></defs><g transform="translate(900, 600)"><path d="M-486.7 0C-492.4 -47.4 -498 -94.8 -470.2 -126C-442.3 -157.2 -381 -172.2 -357.7 -206.5C-334.4 -240.8 -349.1 -294.3 -335.9 -335.9C-322.6 -377.4 -281.4 -407 -238 -412.2C-194.6 -417.4 -149 -398.3 -109 -406.7C-68.9 -415 -34.5 -450.9 0 -486.7L0 0Z" fill="#131f37"></path><path d="M-405.6 0C-410.3 -39.5 -415 -79 -391.8 -105C-368.6 -131 -317.5 -143.5 -298.1 -172.1C-278.6 -200.7 -290.9 -245.3 -279.9 -279.9C-268.9 -314.5 -234.5 -339.2 -198.3 -343.5C-162.2 -347.9 -124.2 -331.9 -90.8 -338.9C-57.4 -345.8 -28.7 -375.7 0 -405.6L0 0Z" fill="#4d345e"></path><path d="M-324.5 0C-328.3 -31.6 -332 -63.2 -313.4 -84C-294.9 -104.8 -254 -114.8 -238.4 -137.7C-222.9 -160.5 -232.7 -196.2 -223.9 -223.9C-215.1 -251.6 -187.6 -271.3 -158.7 -274.8C-129.7 -278.3 -99.3 -265.5 -72.6 -271.1C-46 -276.7 -23 -300.6 0 -324.5L0 0Z" fill="#96446e"></path><path d="M-243.4 0C-246.2 -23.7 -249 -47.4 -235.1 -63C-221.2 -78.6 -190.5 -86.1 -178.8 -103.3C-167.2 -120.4 -174.6 -147.2 -167.9 -167.9C-161.3 -188.7 -140.7 -203.5 -119 -206.1C-97.3 -208.7 -74.5 -199.1 -54.5 -203.3C-34.5 -207.5 -17.2 -225.4 0 -243.4L0 0Z" fill="#d55e64"></path><path d="M-162.2 0C-164.1 -15.8 -166 -31.6 -156.7 -42C-147.4 -52.4 -127 -57.4 -119.2 -68.8C-111.5 -80.3 -116.4 -98.1 -112 -112C-107.5 -125.8 -93.8 -135.7 -79.3 -137.4C-64.9 -139.1 -49.7 -132.8 -36.3 -135.6C-23 -138.3 -11.5 -150.3 0 -162.2L0 0Z" fill="#f88f4a"></path><path d="M-81.1 0C-82.1 -7.9 -83 -15.8 -78.4 -21C-73.7 -26.2 -63.5 -28.7 -59.6 -34.4C-55.7 -40.1 -58.2 -49.1 -56 -56C-53.8 -62.9 -46.9 -67.8 -39.7 -68.7C-32.4 -69.6 -24.8 -66.4 -18.2 -67.8C-11.5 -69.2 -5.7 -75.1 0 -81.1L0 0Z" fill="#fbae3c"></path></g><g transform="translate(0, 0)"><path d="M486.7 0C462.9 36.3 439.1 72.6 433.7 116.2C428.3 159.8 441.3 210.7 421.5 243.4C401.8 276 349.3 290.5 311.1 311.1C273 331.8 249.2 358.7 219.5 380.2C189.8 401.7 154 417.8 116.5 434.7C78.9 451.5 39.4 469.1 0 486.7L0 0Z" fill="#131f37"></path><path d="M405.6 0C385.8 30.3 365.9 60.5 361.4 96.8C356.9 133.2 367.7 175.6 351.3 202.8C334.8 230 291.1 242.1 259.3 259.3C227.5 276.5 207.7 298.9 182.9 316.8C158.1 334.7 128.4 348.2 97.1 362.2C65.7 376.3 32.9 390.9 0 405.6L0 0Z" fill="#4d345e"></path><path d="M324.5 0C308.6 24.2 292.7 48.4 289.1 77.5C285.5 106.5 294.2 140.5 281 162.2C267.9 184 232.8 193.6 207.4 207.4C182 221.2 166.2 239.1 146.3 253.5C126.5 267.8 102.7 278.5 77.6 289.8C52.6 301 26.3 312.8 0 324.5L0 0Z" fill="#96446e"></path><path d="M243.4 0C231.5 18.2 219.6 36.3 216.9 58.1C214.1 79.9 220.6 105.4 210.8 121.7C200.9 138 174.6 145.2 155.6 155.6C136.5 165.9 124.6 179.3 109.8 190.1C94.9 200.8 77 208.9 58.2 217.3C39.4 225.8 19.7 234.6 0 243.4L0 0Z" fill="#d55e64"></path><path d="M162.2 0C154.3 12.1 146.4 24.2 144.6 38.7C142.8 53.3 147.1 70.2 140.5 81.1C133.9 92 116.4 96.8 103.7 103.7C91 110.6 83.1 119.6 73.2 126.7C63.3 133.9 51.3 139.3 38.8 144.9C26.3 150.5 13.1 156.4 0 162.2L0 0Z" fill="#f88f4a"></path><path d="M81.1 0C77.2 6.1 73.2 12.1 72.3 19.4C71.4 26.6 73.5 35.1 70.3 40.6C67 46 58.2 48.4 51.9 51.9C45.5 55.3 41.5 59.8 36.6 63.4C31.6 66.9 25.7 69.6 19.4 72.4C13.1 75.3 6.6 78.2 0 81.1L0 0Z" fill="#fbae3c"></path></g></svg>