<svg id="visual" viewBox="0 0 900 600" width="900" height="600" xmlns="http://www.w3.org/2000/svg" xmlns:xlink="http://www.w3.org/1999/xlink" version="1.1"><rect x="0" y="0" width="900" height="600" fill="#3e3e3e"></rect><path d="M0 445L129 380L257 412L386 398L514 357L643 421L771 428L900 414L900 601L771 601L643 601L514 601L386 601L257 601L129 601L0 601Z" fill="#ffffff"></path><path d="M0 411L129 430L257 419L386 441L514 476L643 427L771 414L900 412L900 601L771 601L643 601L514 601L386 601L257 601L129 601L0 601Z" fill="#b9bcc2"></path><path d="M0 470L129 449L257 440L386 496L514 447L643 447L771 459L900 501L900 601L771 601L643 601L514 601L386 601L257 601L129 601L0 601Z" fill="#777d88"></path><path d="M0 519L129 481L257 505L386 508L514 486L643 498L771 503L900 493L900 601L771 601L643 601L514 601L386 601L257 601L129 601L0 601Z" fill="#3a4452"></path><path d="M0 554L129 548L257 538L386 547L514 533L643 559L771 558L900 531L900 601L771 601L643 601L514 601L386 601L257 601L129 601L0 601Z" fill="#001122"></path></svg>