<svg id="visual" viewBox="0 0 960 540" width="960" height="540" xmlns="http://www.w3.org/2000/svg" xmlns:xlink="http://www.w3.org/1999/xlink" version="1.1"><rect x="0" y="0" width="960" height="540" fill="#001122"></rect><path d="M0 490L53 469L107 485L160 482L213 480L267 485L320 471L373 472L427 464L480 488L533 459L587 472L640 473L693 460L747 490L800 457L853 462L907 468L960 456L960 541L907 541L853 541L800 541L747 541L693 541L640 541L587 541L533 541L480 541L427 541L373 541L320 541L267 541L213 541L160 541L107 541L53 541L0 541Z" fill="#6600ff"></path><path d="M0 461L53 461L107 465L160 485L213 478L267 471L320 489L373 478L427 470L480 491L533 467L587 471L640 495L693 490L747 486L800 484L853 497L907 487L960 469L960 541L907 541L853 541L800 541L747 541L693 541L640 541L587 541L533 541L480 541L427 541L373 541L320 541L267 541L213 541L160 541L107 541L53 541L0 541Z" fill="#6626fd"></path><path d="M0 509L53 474L107 477L160 483L213 475L267 486L320 479L373 479L427 497L480 491L533 483L587 474L640 484L693 502L747 492L800 489L853 491L907 479L960 478L960 541L907 541L853 541L800 541L747 541L693 541L640 541L587 541L533 541L480 541L427 541L373 541L320 541L267 541L213 541L160 541L107 541L53 541L0 541Z" fill="#6839fb"></path><path d="M0 497L53 496L107 495L160 507L213 500L267 497L320 508L373 495L427 504L480 493L533 512L587 496L640 510L693 510L747 496L800 511L853 499L907 502L960 508L960 541L907 541L853 541L800 541L747 541L693 541L640 541L587 541L533 541L480 541L427 541L373 541L320 541L267 541L213 541L160 541L107 541L53 541L0 541Z" fill="#6a47f9"></path><path d="M0 502L53 502L107 510L160 514L213 508L267 506L320 508L373 501L427 510L480 522L533 505L587 510L640 510L693 511L747 508L800 521L853 524L907 514L960 510L960 541L907 541L853 541L800 541L747 541L693 541L640 541L587 541L533 541L480 541L427 541L373 541L320 541L267 541L213 541L160 541L107 541L53 541L0 541Z" fill="#6d52f6"></path><path d="M0 530L53 522L107 523L160 520L213 525L267 516L320 521L373 522L427 527L480 529L533 516L587 515L640 528L693 524L747 531L800 521L853 517L907 530L960 531L960 541L907 541L853 541L800 541L747 541L693 541L640 541L587 541L533 541L480 541L427 541L373 541L320 541L267 541L213 541L160 541L107 541L53 541L0 541Z" fill="#715df2"></path></svg>