<svg id="visual" viewBox="0 0 900 600" width="900" height="600" xmlns="http://www.w3.org/2000/svg" xmlns:xlink="http://www.w3.org/1999/xlink" version="1.1"><rect x="0" y="0" width="900" height="600" fill="#140021"></rect><path d="M517 0L420 0L420 86L526 86L526 171L398 171L398 257L450 257L450 343L505 343L505 429L356 429L356 514L361 514L361 600L0 600L0 514L0 514L0 429L0 429L0 343L0 343L0 257L0 257L0 171L0 171L0 86L0 86L0 0L0 0Z" fill="#9900ff"></path><path d="M270 0L239 0L239 86L265 86L265 171L327 171L327 257L282 257L282 343L297 343L297 429L271 429L271 514L266 514L266 600L0 600L0 514L0 514L0 429L0 429L0 343L0 343L0 257L0 257L0 171L0 171L0 86L0 86L0 0L0 0Z" fill="#7700c6"></path><path d="M165 0L129 0L129 86L97 86L97 171L213 171L213 257L155 257L155 343L165 343L165 429L120 429L120 514L224 514L224 600L0 600L0 514L0 514L0 429L0 429L0 343L0 343L0 257L0 257L0 171L0 171L0 86L0 86L0 0L0 0Z" fill="#560090"></path></svg>