<svg id="visual" viewBox="0 0 900 600" width="900" height="600" xmlns="http://www.w3.org/2000/svg" xmlns:xlink="http://www.w3.org/1999/xlink" version="1.1"><g stroke-width="1" stroke-linejoin="bevel"><path d="M499 288L572 289L487 210Z" fill="#112e42" stroke="#112e42"></path><path d="M572 289L565 163L487 210Z" fill="#0c2435" stroke="#0c2435"></path><path d="M393 95L432 232L487 210Z" fill="#277297" stroke="#277297"></path><path d="M487 210L432 232L499 288Z" fill="#277297" stroke="#277297"></path><path d="M565 163L504 100L487 210Z" fill="#297ea6" stroke="#297ea6"></path><path d="M385 337L497 383L499 288Z" fill="#00101c" stroke="#00101c"></path><path d="M499 288L497 383L572 289Z" fill="#297ea6" stroke="#297ea6"></path><path d="M566 431L661 325L572 289Z" fill="#297ea6" stroke="#297ea6"></path><path d="M572 289L732 203L565 163Z" fill="#246688" stroke="#246688"></path><path d="M732 203L596 99L565 163Z" fill="#15384f" stroke="#15384f"></path><path d="M565 163L596 99L504 100Z" fill="#15384f" stroke="#15384f"></path><path d="M432 232L385 337L499 288Z" fill="#277297" stroke="#277297"></path><path d="M504 527L566 431L497 383Z" fill="#297ea6" stroke="#297ea6"></path><path d="M497 383L566 431L572 289Z" fill="#205a7a" stroke="#205a7a"></path><path d="M661 325L732 203L572 289Z" fill="#19435d" stroke="#19435d"></path><path d="M489 0L393 95L504 100Z" fill="#0c2435" stroke="#0c2435"></path><path d="M504 100L393 95L487 210Z" fill="#297ea6" stroke="#297ea6"></path><path d="M432 232L338 307L385 337Z" fill="#246688" stroke="#246688"></path><path d="M283 162L338 307L432 232Z" fill="#1d4e6b" stroke="#1d4e6b"></path><path d="M566 431L731 360L661 325Z" fill="#277297" stroke="#277297"></path><path d="M661 325L731 360L732 203Z" fill="#1d4e6b" stroke="#1d4e6b"></path><path d="M732 203L706 90L596 99Z" fill="#205a7a" stroke="#205a7a"></path><path d="M596 99L565 0L504 100Z" fill="#205a7a" stroke="#205a7a"></path><path d="M338 307L360 408L385 337Z" fill="#081a28" stroke="#081a28"></path><path d="M385 337L360 408L497 383Z" fill="#0c2435" stroke="#0c2435"></path><path d="M667 0L565 0L596 99Z" fill="#0c2435" stroke="#0c2435"></path><path d="M565 0L489 0L504 100Z" fill="#112e42" stroke="#112e42"></path><path d="M809 321L784 201L732 203Z" fill="#19435d" stroke="#19435d"></path><path d="M732 203L811 126L706 90Z" fill="#1d4e6b" stroke="#1d4e6b"></path><path d="M321 70L283 162L393 95Z" fill="#205a7a" stroke="#205a7a"></path><path d="M393 95L283 162L432 232Z" fill="#081a28" stroke="#081a28"></path><path d="M338 307L271 399L360 408Z" fill="#246688" stroke="#246688"></path><path d="M504 527L613 501L566 431Z" fill="#246688" stroke="#246688"></path><path d="M566 431L613 501L731 360Z" fill="#15384f" stroke="#15384f"></path><path d="M827 0L667 0L706 90Z" fill="#277297" stroke="#277297"></path><path d="M706 90L667 0L596 99Z" fill="#277297" stroke="#277297"></path><path d="M361 0L321 70L393 95Z" fill="#19435d" stroke="#19435d"></path><path d="M835 405L809 321L731 360Z" fill="#246688" stroke="#246688"></path><path d="M731 360L809 321L732 203Z" fill="#112e42" stroke="#112e42"></path><path d="M428 522L504 527L497 383Z" fill="#277297" stroke="#277297"></path><path d="M784 201L811 126L732 203Z" fill="#081a28" stroke="#081a28"></path><path d="M900 165L811 126L784 201Z" fill="#205a7a" stroke="#205a7a"></path><path d="M489 0L361 0L393 95Z" fill="#0c2435" stroke="#0c2435"></path><path d="M360 408L428 522L497 383Z" fill="#297ea6" stroke="#297ea6"></path><path d="M185 100L237 220L283 162Z" fill="#081a28" stroke="#081a28"></path><path d="M283 162L237 220L338 307Z" fill="#112e42" stroke="#112e42"></path><path d="M360 408L277 475L428 522Z" fill="#00101c" stroke="#00101c"></path><path d="M613 501L739 474L731 360Z" fill="#1d4e6b" stroke="#1d4e6b"></path><path d="M667 600L739 474L613 501Z" fill="#0c2435" stroke="#0c2435"></path><path d="M174 275L271 399L338 307Z" fill="#112e42" stroke="#112e42"></path><path d="M361 0L312 0L321 70Z" fill="#1d4e6b" stroke="#1d4e6b"></path><path d="M321 70L185 100L283 162Z" fill="#277297" stroke="#277297"></path><path d="M739 474L835 405L731 360Z" fill="#00101c" stroke="#00101c"></path><path d="M809 321L900 278L784 201Z" fill="#081a28" stroke="#081a28"></path><path d="M175 437L277 475L271 399Z" fill="#15384f" stroke="#15384f"></path><path d="M271 399L277 475L360 408Z" fill="#112e42" stroke="#112e42"></path><path d="M428 522L535 600L504 527Z" fill="#15384f" stroke="#15384f"></path><path d="M504 527L535 600L613 501Z" fill="#277297" stroke="#277297"></path><path d="M373 600L535 600L428 522Z" fill="#112e42" stroke="#112e42"></path><path d="M65 210L174 275L237 220Z" fill="#297ea6" stroke="#297ea6"></path><path d="M237 220L174 275L338 307Z" fill="#277297" stroke="#277297"></path><path d="M535 600L609 600L613 501Z" fill="#19435d" stroke="#19435d"></path><path d="M739 474L805 514L835 405Z" fill="#1d4e6b" stroke="#1d4e6b"></path><path d="M900 392L900 278L809 321Z" fill="#297ea6" stroke="#297ea6"></path><path d="M900 278L900 165L784 201Z" fill="#246688" stroke="#246688"></path><path d="M811 126L827 0L706 90Z" fill="#00101c" stroke="#00101c"></path><path d="M900 115L827 0L811 126Z" fill="#277297" stroke="#277297"></path><path d="M218 0L185 100L321 70Z" fill="#00101c" stroke="#00101c"></path><path d="M609 600L667 600L613 501Z" fill="#0c2435" stroke="#0c2435"></path><path d="M667 600L805 514L739 474Z" fill="#081a28" stroke="#081a28"></path><path d="M835 405L900 392L809 321Z" fill="#112e42" stroke="#112e42"></path><path d="M900 165L900 115L811 126Z" fill="#246688" stroke="#246688"></path><path d="M277 475L373 600L428 522Z" fill="#112e42" stroke="#112e42"></path><path d="M900 524L900 392L835 405Z" fill="#19435d" stroke="#19435d"></path><path d="M312 0L218 0L321 70Z" fill="#297ea6" stroke="#297ea6"></path><path d="M174 275L175 437L271 399Z" fill="#19435d" stroke="#19435d"></path><path d="M277 475L301 600L373 600Z" fill="#19435d" stroke="#19435d"></path><path d="M221 600L301 600L277 475Z" fill="#246688" stroke="#246688"></path><path d="M900 115L900 0L827 0Z" fill="#0c2435" stroke="#0c2435"></path><path d="M91 366L162 472L175 437Z" fill="#112e42" stroke="#112e42"></path><path d="M175 437L162 472L277 475Z" fill="#246688" stroke="#246688"></path><path d="M218 0L128 71L185 100Z" fill="#19435d" stroke="#19435d"></path><path d="M185 100L65 210L237 220Z" fill="#15384f" stroke="#15384f"></path><path d="M174 275L91 366L175 437Z" fill="#297ea6" stroke="#297ea6"></path><path d="M65 210L99 316L174 275Z" fill="#277297" stroke="#277297"></path><path d="M833 600L900 524L805 514Z" fill="#112e42" stroke="#112e42"></path><path d="M805 514L900 524L835 405Z" fill="#112e42" stroke="#112e42"></path><path d="M0 312L91 366L99 316Z" fill="#00101c" stroke="#00101c"></path><path d="M99 316L91 366L174 275Z" fill="#0c2435" stroke="#0c2435"></path><path d="M667 600L833 600L805 514Z" fill="#00101c" stroke="#00101c"></path><path d="M128 71L65 210L185 100Z" fill="#297ea6" stroke="#297ea6"></path><path d="M162 472L221 600L277 475Z" fill="#19435d" stroke="#19435d"></path><path d="M96 527L221 600L162 472Z" fill="#19435d" stroke="#19435d"></path><path d="M833 600L900 600L900 524Z" fill="#1d4e6b" stroke="#1d4e6b"></path><path d="M0 491L96 527L91 366Z" fill="#246688" stroke="#246688"></path><path d="M91 366L96 527L162 472Z" fill="#15384f" stroke="#15384f"></path><path d="M128 71L0 130L65 210Z" fill="#277297" stroke="#277297"></path><path d="M218 0L60 0L128 71Z" fill="#112e42" stroke="#112e42"></path><path d="M0 130L0 225L65 210Z" fill="#297ea6" stroke="#297ea6"></path><path d="M65 210L0 312L99 316Z" fill="#246688" stroke="#246688"></path><path d="M0 225L0 312L65 210Z" fill="#112e42" stroke="#112e42"></path><path d="M60 0L0 130L128 71Z" fill="#19435d" stroke="#19435d"></path><path d="M0 312L0 376L91 366Z" fill="#205a7a" stroke="#205a7a"></path><path d="M0 600L77 600L96 527Z" fill="#1d4e6b" stroke="#1d4e6b"></path><path d="M96 527L77 600L221 600Z" fill="#0c2435" stroke="#0c2435"></path><path d="M60 0L0 0L0 130Z" fill="#0c2435" stroke="#0c2435"></path><path d="M0 376L0 491L91 366Z" fill="#112e42" stroke="#112e42"></path><path d="M0 491L0 600L96 527Z" fill="#15384f" stroke="#15384f"></path></g></svg>