<svg id="visual" viewBox="0 0 900 600" width="900" height="600" xmlns="http://www.w3.org/2000/svg" xmlns:xlink="http://www.w3.org/1999/xlink" version="1.1"><g stroke-width="1" stroke-linejoin="bevel"><path d="M418 325L334 331L376 433Z" fill="#566055" stroke="#566055"></path><path d="M334 331L313 438L376 433Z" fill="#0a1c25" stroke="#0a1c25"></path><path d="M330 481L397 482L376 433Z" fill="#12272d" stroke="#12272d"></path><path d="M376 433L487 417L418 325Z" fill="#566055" stroke="#566055"></path><path d="M397 482L487 417L376 433Z" fill="#293e3c" stroke="#293e3c"></path><path d="M313 438L330 481L376 433Z" fill="#676b5f" stroke="#676b5f"></path><path d="M334 331L230 388L313 438Z" fill="#566055" stroke="#566055"></path><path d="M313 438L211 485L330 481Z" fill="#676b5f" stroke="#676b5f"></path><path d="M461 195L387 221L418 325Z" fill="#12272d" stroke="#12272d"></path><path d="M418 325L387 221L334 331Z" fill="#374944" stroke="#374944"></path><path d="M334 331L207 267L230 388Z" fill="#293e3c" stroke="#293e3c"></path><path d="M487 417L513 262L418 325Z" fill="#888277" stroke="#888277"></path><path d="M397 482L503 521L487 417Z" fill="#888277" stroke="#888277"></path><path d="M487 417L582 299L513 262Z" fill="#1d3235" stroke="#1d3235"></path><path d="M394 600L503 521L397 482Z" fill="#1d3235" stroke="#1d3235"></path><path d="M513 262L461 195L418 325Z" fill="#888277" stroke="#888277"></path><path d="M394 132L314 188L387 221Z" fill="#1d3235" stroke="#1d3235"></path><path d="M387 221L314 188L334 331Z" fill="#12272d" stroke="#12272d"></path><path d="M314 188L207 267L334 331Z" fill="#12272d" stroke="#12272d"></path><path d="M124 367L211 485L230 388Z" fill="#676b5f" stroke="#676b5f"></path><path d="M230 388L211 485L313 438Z" fill="#374944" stroke="#374944"></path><path d="M330 481L394 600L397 482Z" fill="#00101c" stroke="#00101c"></path><path d="M595 402L582 299L487 417Z" fill="#293e3c" stroke="#293e3c"></path><path d="M513 262L627 219L461 195Z" fill="#293e3c" stroke="#293e3c"></path><path d="M503 521L595 402L487 417Z" fill="#1d3235" stroke="#1d3235"></path><path d="M274 600L394 600L330 481Z" fill="#46544c" stroke="#46544c"></path><path d="M288 97L235 182L314 188Z" fill="#566055" stroke="#566055"></path><path d="M314 188L235 182L207 267Z" fill="#676b5f" stroke="#676b5f"></path><path d="M486 60L394 132L461 195Z" fill="#46544c" stroke="#46544c"></path><path d="M461 195L394 132L387 221Z" fill="#77766a" stroke="#77766a"></path><path d="M211 485L274 600L330 481Z" fill="#374944" stroke="#374944"></path><path d="M124 309L230 388L207 267Z" fill="#566055" stroke="#566055"></path><path d="M124 309L124 367L230 388Z" fill="#77766a" stroke="#77766a"></path><path d="M211 485L166 600L274 600Z" fill="#46544c" stroke="#46544c"></path><path d="M70 218L124 309L207 267Z" fill="#888277" stroke="#888277"></path><path d="M394 600L526 600L503 521Z" fill="#293e3c" stroke="#293e3c"></path><path d="M503 521L604 527L595 402Z" fill="#00101c" stroke="#00101c"></path><path d="M564 600L604 527L503 521Z" fill="#888277" stroke="#888277"></path><path d="M394 132L288 97L314 188Z" fill="#293e3c" stroke="#293e3c"></path><path d="M235 182L169 122L207 267Z" fill="#1d3235" stroke="#1d3235"></path><path d="M724 290L627 219L582 299Z" fill="#0a1c25" stroke="#0a1c25"></path><path d="M582 299L627 219L513 262Z" fill="#374944" stroke="#374944"></path><path d="M724 290L582 299L595 402Z" fill="#888277" stroke="#888277"></path><path d="M526 600L564 600L503 521Z" fill="#77766a" stroke="#77766a"></path><path d="M111 600L166 600L65 534Z" fill="#12272d" stroke="#12272d"></path><path d="M706 600L685 474L604 527Z" fill="#374944" stroke="#374944"></path><path d="M604 527L685 474L595 402Z" fill="#566055" stroke="#566055"></path><path d="M288 97L169 122L235 182Z" fill="#0a1c25" stroke="#0a1c25"></path><path d="M604 61L486 60L461 195Z" fill="#0a1c25" stroke="#0a1c25"></path><path d="M394 132L316 0L288 97Z" fill="#1d3235" stroke="#1d3235"></path><path d="M685 474L713 414L595 402Z" fill="#77766a" stroke="#77766a"></path><path d="M0 261L0 419L124 367Z" fill="#0a1c25" stroke="#0a1c25"></path><path d="M65 534L166 600L211 485Z" fill="#1d3235" stroke="#1d3235"></path><path d="M169 122L70 218L207 267Z" fill="#00101c" stroke="#00101c"></path><path d="M65 534L211 485L124 367Z" fill="#46544c" stroke="#46544c"></path><path d="M0 419L65 534L124 367Z" fill="#12272d" stroke="#12272d"></path><path d="M713 414L724 290L595 402Z" fill="#12272d" stroke="#12272d"></path><path d="M627 219L604 61L461 195Z" fill="#888277" stroke="#888277"></path><path d="M724 290L703 227L627 219Z" fill="#77766a" stroke="#77766a"></path><path d="M486 60L408 0L394 132Z" fill="#00101c" stroke="#00101c"></path><path d="M216 0L138 86L169 122Z" fill="#1d3235" stroke="#1d3235"></path><path d="M216 0L169 122L288 97Z" fill="#1d3235" stroke="#1d3235"></path><path d="M169 122L138 86L70 218Z" fill="#293e3c" stroke="#293e3c"></path><path d="M408 0L316 0L394 132Z" fill="#374944" stroke="#374944"></path><path d="M0 261L124 367L124 309Z" fill="#293e3c" stroke="#293e3c"></path><path d="M669 113L604 61L627 219Z" fill="#676b5f" stroke="#676b5f"></path><path d="M486 60L474 0L408 0Z" fill="#676b5f" stroke="#676b5f"></path><path d="M606 0L474 0L486 60Z" fill="#566055" stroke="#566055"></path><path d="M703 227L669 113L627 219Z" fill="#293e3c" stroke="#293e3c"></path><path d="M782 164L669 113L703 227Z" fill="#00101c" stroke="#00101c"></path><path d="M713 414L769 411L724 290Z" fill="#676b5f" stroke="#676b5f"></path><path d="M724 290L789 299L703 227Z" fill="#566055" stroke="#566055"></path><path d="M793 498L769 411L713 414Z" fill="#12272d" stroke="#12272d"></path><path d="M793 498L713 414L685 474Z" fill="#77766a" stroke="#77766a"></path><path d="M0 223L0 261L70 218Z" fill="#77766a" stroke="#77766a"></path><path d="M70 218L0 261L124 309Z" fill="#46544c" stroke="#46544c"></path><path d="M564 600L706 600L604 527Z" fill="#0a1c25" stroke="#0a1c25"></path><path d="M316 0L216 0L288 97Z" fill="#12272d" stroke="#12272d"></path><path d="M0 91L0 223L70 218Z" fill="#12272d" stroke="#12272d"></path><path d="M0 91L70 218L138 86Z" fill="#77766a" stroke="#77766a"></path><path d="M0 419L0 529L65 534Z" fill="#12272d" stroke="#12272d"></path><path d="M65 534L0 600L111 600Z" fill="#888277" stroke="#888277"></path><path d="M769 411L789 299L724 290Z" fill="#77766a" stroke="#77766a"></path><path d="M706 600L793 498L685 474Z" fill="#374944" stroke="#374944"></path><path d="M769 411L900 390L789 299Z" fill="#374944" stroke="#374944"></path><path d="M671 0L604 61L669 113Z" fill="#0a1c25" stroke="#0a1c25"></path><path d="M671 0L606 0L604 61Z" fill="#293e3c" stroke="#293e3c"></path><path d="M604 61L606 0L486 60Z" fill="#77766a" stroke="#77766a"></path><path d="M0 529L0 600L65 534Z" fill="#293e3c" stroke="#293e3c"></path><path d="M789 299L782 164L703 227Z" fill="#12272d" stroke="#12272d"></path><path d="M69 0L0 91L138 86Z" fill="#0a1c25" stroke="#0a1c25"></path><path d="M795 96L671 0L669 113Z" fill="#374944" stroke="#374944"></path><path d="M216 0L69 0L138 86Z" fill="#0a1c25" stroke="#0a1c25"></path><path d="M706 600L820 600L793 498Z" fill="#77766a" stroke="#77766a"></path><path d="M793 498L900 390L769 411Z" fill="#676b5f" stroke="#676b5f"></path><path d="M900 92L795 96L782 164Z" fill="#0a1c25" stroke="#0a1c25"></path><path d="M900 234L782 164L789 299Z" fill="#12272d" stroke="#12272d"></path><path d="M782 164L795 96L669 113Z" fill="#676b5f" stroke="#676b5f"></path><path d="M900 534L900 390L793 498Z" fill="#46544c" stroke="#46544c"></path><path d="M900 390L900 268L789 299Z" fill="#676b5f" stroke="#676b5f"></path><path d="M69 0L0 0L0 91Z" fill="#676b5f" stroke="#676b5f"></path><path d="M900 268L900 234L789 299Z" fill="#0a1c25" stroke="#0a1c25"></path><path d="M820 600L900 534L793 498Z" fill="#888277" stroke="#888277"></path><path d="M900 92L797 0L795 96Z" fill="#293e3c" stroke="#293e3c"></path><path d="M795 96L797 0L671 0Z" fill="#676b5f" stroke="#676b5f"></path><path d="M820 600L900 600L900 534Z" fill="#293e3c" stroke="#293e3c"></path><path d="M900 234L900 92L782 164Z" fill="#293e3c" stroke="#293e3c"></path><path d="M900 92L900 0L797 0Z" fill="#77766a" stroke="#77766a"></path></g></svg>