<svg id="visual" viewBox="0 0 900 600" width="900" height="600" xmlns="http://www.w3.org/2000/svg" xmlns:xlink="http://www.w3.org/1999/xlink" version="1.1"><g stroke-width="1" stroke-linejoin="bevel"><path d="M441 311L335.5 374L447 394Z" fill="#1d4e6b" stroke="#1d4e6b"></path><path d="M441 311L352.5 283L335.5 374Z" fill="#0c2435" stroke="#0c2435"></path><path d="M335.5 374L406 457L447 394Z" fill="#297ea6" stroke="#297ea6"></path><path d="M335.5 374L368.5 500L406 457Z" fill="#297ea6" stroke="#297ea6"></path><path d="M352.5 283L250 383L335.5 374Z" fill="#15384f" stroke="#15384f"></path><path d="M335.5 374L250 383L368.5 500Z" fill="#297ea6" stroke="#297ea6"></path><path d="M406 457L542.5 423L447 394Z" fill="#15384f" stroke="#15384f"></path><path d="M447 394L542.5 423L441 311Z" fill="#00101c" stroke="#00101c"></path><path d="M423 600L542.5 423L406 457Z" fill="#00101c" stroke="#00101c"></path><path d="M480 163L294.5 199L352.5 283Z" fill="#1d4e6b" stroke="#1d4e6b"></path><path d="M352.5 283L205 324L250 383Z" fill="#205a7a" stroke="#205a7a"></path><path d="M294.5 199L205 324L352.5 283Z" fill="#277297" stroke="#277297"></path><path d="M542.5 423L586.5 301L441 311Z" fill="#246688" stroke="#246688"></path><path d="M441 311L480 163L352.5 283Z" fill="#19435d" stroke="#19435d"></path><path d="M586.5 301L480 163L441 311Z" fill="#0c2435" stroke="#0c2435"></path><path d="M99.5 438L196 478L250 383Z" fill="#297ea6" stroke="#297ea6"></path><path d="M250 383L196 478L368.5 500Z" fill="#297ea6" stroke="#297ea6"></path><path d="M293.5 600L423 600L368.5 500Z" fill="#1d4e6b" stroke="#1d4e6b"></path><path d="M368.5 500L423 600L406 457Z" fill="#277297" stroke="#277297"></path><path d="M586.5 301L547.5 158L480 163Z" fill="#277297" stroke="#277297"></path><path d="M660 523L652 367L542.5 423Z" fill="#00101c" stroke="#00101c"></path><path d="M542.5 423L652 367L586.5 301Z" fill="#081a28" stroke="#081a28"></path><path d="M586.5 301L658 181L547.5 158Z" fill="#19435d" stroke="#19435d"></path><path d="M652 367L653 333L586.5 301Z" fill="#19435d" stroke="#19435d"></path><path d="M182 185L140.5 299L205 324Z" fill="#15384f" stroke="#15384f"></path><path d="M205 324L99.5 438L250 383Z" fill="#205a7a" stroke="#205a7a"></path><path d="M196 478L293.5 600L368.5 500Z" fill="#297ea6" stroke="#297ea6"></path><path d="M547.5 158L492 102L480 163Z" fill="#19435d" stroke="#19435d"></path><path d="M480 163L352.5 78L294.5 199Z" fill="#1d4e6b" stroke="#1d4e6b"></path><path d="M294.5 199L182 185L205 324Z" fill="#00101c" stroke="#00101c"></path><path d="M244 100L182 185L294.5 199Z" fill="#297ea6" stroke="#297ea6"></path><path d="M423 600L602.5 538L542.5 423Z" fill="#1d4e6b" stroke="#1d4e6b"></path><path d="M492 102L352.5 78L480 163Z" fill="#277297" stroke="#277297"></path><path d="M547.5 158L561.5 116L492 102Z" fill="#081a28" stroke="#081a28"></path><path d="M658 181L561.5 116L547.5 158Z" fill="#00101c" stroke="#00101c"></path><path d="M196 478L233 600L293.5 600Z" fill="#112e42" stroke="#112e42"></path><path d="M123.5 600L233 600L196 478Z" fill="#00101c" stroke="#00101c"></path><path d="M352.5 78L244 100L294.5 199Z" fill="#205a7a" stroke="#205a7a"></path><path d="M423 600L572.5 600L602.5 538Z" fill="#205a7a" stroke="#205a7a"></path><path d="M140.5 299L99.5 438L205 324Z" fill="#1d4e6b" stroke="#1d4e6b"></path><path d="M182 185L112.5 228L140.5 299Z" fill="#246688" stroke="#246688"></path><path d="M140.5 299L0 290L99.5 438Z" fill="#19435d" stroke="#19435d"></path><path d="M87.5 111L112.5 228L182 185Z" fill="#00101c" stroke="#00101c"></path><path d="M685 600L660 523L602.5 538Z" fill="#00101c" stroke="#00101c"></path><path d="M602.5 538L660 523L542.5 423Z" fill="#205a7a" stroke="#205a7a"></path><path d="M652 367L760.5 289L653 333Z" fill="#081a28" stroke="#081a28"></path><path d="M760.5 289L658 181L653 333Z" fill="#081a28" stroke="#081a28"></path><path d="M653 333L658 181L586.5 301Z" fill="#246688" stroke="#246688"></path><path d="M0 437L69.5 480L99.5 438Z" fill="#1d4e6b" stroke="#1d4e6b"></path><path d="M99.5 438L69.5 480L196 478Z" fill="#15384f" stroke="#15384f"></path><path d="M599.5 0L492 102L561.5 116Z" fill="#205a7a" stroke="#205a7a"></path><path d="M599.5 0L419 0L492 102Z" fill="#00101c" stroke="#00101c"></path><path d="M492 102L419 0L352.5 78Z" fill="#19435d" stroke="#19435d"></path><path d="M352.5 78L263 0L244 100Z" fill="#1d4e6b" stroke="#1d4e6b"></path><path d="M419 0L369.5 0L352.5 78Z" fill="#112e42" stroke="#112e42"></path><path d="M69.5 480L123.5 600L196 478Z" fill="#277297" stroke="#277297"></path><path d="M810.5 429L760.5 289L652 367Z" fill="#297ea6" stroke="#297ea6"></path><path d="M572.5 600L685 600L602.5 538Z" fill="#297ea6" stroke="#297ea6"></path><path d="M660 523L810.5 429L652 367Z" fill="#19435d" stroke="#19435d"></path><path d="M369.5 0L263 0L352.5 78Z" fill="#15384f" stroke="#15384f"></path><path d="M244 100L87.5 111L182 185Z" fill="#297ea6" stroke="#297ea6"></path><path d="M78.5 0L87.5 111L244 100Z" fill="#112e42" stroke="#112e42"></path><path d="M112.5 228L0 290L140.5 299Z" fill="#246688" stroke="#246688"></path><path d="M815.5 170L709 110L658 181Z" fill="#00101c" stroke="#00101c"></path><path d="M658 181L709 110L561.5 116Z" fill="#1d4e6b" stroke="#1d4e6b"></path><path d="M0 234L0 290L112.5 228Z" fill="#0c2435" stroke="#0c2435"></path><path d="M0 290L0 437L99.5 438Z" fill="#297ea6" stroke="#297ea6"></path><path d="M69.5 480L0 600L123.5 600Z" fill="#112e42" stroke="#112e42"></path><path d="M636 0L599.5 0L561.5 116Z" fill="#081a28" stroke="#081a28"></path><path d="M87.5 111L0 234L112.5 228Z" fill="#297ea6" stroke="#297ea6"></path><path d="M0 437L0 482L69.5 480Z" fill="#00101c" stroke="#00101c"></path><path d="M800.5 525L810.5 429L660 523Z" fill="#297ea6" stroke="#297ea6"></path><path d="M760.5 289L815.5 170L658 181Z" fill="#081a28" stroke="#081a28"></path><path d="M709 110L636 0L561.5 116Z" fill="#0c2435" stroke="#0c2435"></path><path d="M685 600L800.5 525L660 523Z" fill="#246688" stroke="#246688"></path><path d="M900 226L815.5 170L760.5 289Z" fill="#246688" stroke="#246688"></path><path d="M709 110L767.5 0L636 0Z" fill="#297ea6" stroke="#297ea6"></path><path d="M685 600L789.5 600L800.5 525Z" fill="#00101c" stroke="#00101c"></path><path d="M0 482L0 600L69.5 480Z" fill="#297ea6" stroke="#297ea6"></path><path d="M815.5 170L801.5 104L709 110Z" fill="#0c2435" stroke="#0c2435"></path><path d="M263 0L78.5 0L244 100Z" fill="#277297" stroke="#277297"></path><path d="M87.5 111L0 88L0 234Z" fill="#246688" stroke="#246688"></path><path d="M78.5 0L0 88L87.5 111Z" fill="#1d4e6b" stroke="#1d4e6b"></path><path d="M900 487L810.5 429L800.5 525Z" fill="#297ea6" stroke="#297ea6"></path><path d="M900 487L900 388L810.5 429Z" fill="#297ea6" stroke="#297ea6"></path><path d="M810.5 429L900 309L760.5 289Z" fill="#297ea6" stroke="#297ea6"></path><path d="M815.5 170L900 57L801.5 104Z" fill="#246688" stroke="#246688"></path><path d="M900 388L900 309L810.5 429Z" fill="#1d4e6b" stroke="#1d4e6b"></path><path d="M900 57L767.5 0L801.5 104Z" fill="#15384f" stroke="#15384f"></path><path d="M801.5 104L767.5 0L709 110Z" fill="#297ea6" stroke="#297ea6"></path><path d="M900 309L900 226L760.5 289Z" fill="#112e42" stroke="#112e42"></path><path d="M900 600L900 487L800.5 525Z" fill="#1d4e6b" stroke="#1d4e6b"></path><path d="M78.5 0L0 0L0 88Z" fill="#246688" stroke="#246688"></path><path d="M789.5 600L900 600L800.5 525Z" fill="#297ea6" stroke="#297ea6"></path><path d="M900 226L900 57L815.5 170Z" fill="#15384f" stroke="#15384f"></path><path d="M900 57L900 0L767.5 0Z" fill="#246688" stroke="#246688"></path></g></svg>