<svg id="visual" viewBox="0 0 900 600" width="900" height="600" xmlns="http://www.w3.org/2000/svg" xmlns:xlink="http://www.w3.org/1999/xlink" version="1.1"><rect width="900" height="600" fill="#001829"></rect><g><g transform="translate(840 27)"><path d="M0 -85.9L67.2 -53.6L83.7 19.1L37.3 77.4L-37.3 77.4L-83.7 19.1L-67.2 -53.6Z" fill="#297EA6"></path></g><g transform="translate(461 472)"><path d="M0 -64L50 -39.9L62.4 14.2L27.8 57.7L-27.8 57.7L-62.4 14.2L-50 -39.9Z" fill="#297EA6"></path></g><g transform="translate(593 322)"><path d="M0 -67L52.4 -41.8L65.3 14.9L29.1 60.4L-29.1 60.4L-65.3 14.9L-52.4 -41.8Z" fill="#297EA6"></path></g><g transform="translate(249 129)"><path d="M0 -50L39.1 -31.2L48.7 11.1L21.7 45L-21.7 45L-48.7 11.1L-39.1 -31.2Z" fill="#297EA6"></path></g><g transform="translate(679 507)"><path d="M0 -75L58.6 -46.8L73.1 16.7L32.5 67.6L-32.5 67.6L-73.1 16.7L-58.6 -46.8Z" fill="#297EA6"></path></g><g transform="translate(880 540)"><path d="M0 -83L64.9 -51.7L80.9 18.5L36 74.8L-36 74.8L-80.9 18.5L-64.9 -51.7Z" fill="#297EA6"></path></g><g transform="translate(8 211)"><path d="M0 -50L39.1 -31.2L48.7 11.1L21.7 45L-21.7 45L-48.7 11.1L-39.1 -31.2Z" fill="#297EA6"></path></g><g transform="translate(504 26)"><path d="M0 -70L54.7 -43.6L68.2 15.6L30.4 63.1L-30.4 63.1L-68.2 15.6L-54.7 -43.6Z" fill="#297EA6"></path></g><g transform="translate(94 443)"><path d="M0 -76L59.4 -47.4L74.1 16.9L33 68.5L-33 68.5L-74.1 16.9L-59.4 -47.4Z" fill="#297EA6"></path></g><g transform="translate(671 121)"><path d="M0 -37L28.9 -23.1L36.1 8.2L16.1 33.3L-16.1 33.3L-36.1 8.2L-28.9 -23.1Z" fill="#297EA6"></path></g><g transform="translate(29 30)"><path d="M0 -77L60.2 -48L75.1 17.1L33.4 69.4L-33.4 69.4L-75.1 17.1L-60.2 -48Z" fill="#297EA6"></path></g><g transform="translate(889 210)"><path d="M0 -72L56.3 -44.9L70.2 16L31.2 64.9L-31.2 64.9L-70.2 16L-56.3 -44.9Z" fill="#297EA6"></path></g><g transform="translate(278 400)"><path d="M0 -32L25 -20L31.2 7.1L13.9 28.8L-13.9 28.8L-31.2 7.1L-25 -20Z" fill="#297EA6"></path></g><g transform="translate(451 201)"><path d="M0 -56L43.8 -34.9L54.6 12.5L24.3 50.5L-24.3 50.5L-54.6 12.5L-43.8 -34.9Z" fill="#297EA6"></path></g><g transform="translate(246 568)"><path d="M0 -61L47.7 -38L59.5 13.6L26.5 55L-26.5 55L-59.5 13.6L-47.7 -38Z" fill="#297EA6"></path></g><g transform="translate(790 365)"><path d="M0 -69L53.9 -43L67.3 15.4L29.9 62.2L-29.9 62.2L-67.3 15.4L-53.9 -43Z" fill="#297EA6"></path></g></g></svg>