<svg id="visual" viewBox="0 0 900 600" width="900" height="600" xmlns="http://www.w3.org/2000/svg" xmlns:xlink="http://www.w3.org/1999/xlink" version="1.1"><path d="M0 49L11.5 46C23 43 46 37 69 34C92 31 115 31 138.2 34C161.3 37 184.7 43 207.8 47C231 51 254 53 277 51C300 49 323 43 346 41C369 39 392 41 415.2 41C438.3 41 461.7 39 484.8 37C508 35 531 33 554 33C577 33 600 35 623 36C646 37 669 37 692.2 36C715.3 35 738.7 33 761.8 33C785 33 808 35 831 36C854 37 877 37 888.5 37L900 37L900 0L888.5 0C877 0 854 0 831 0C808 0 785 0 761.8 0C738.7 0 715.3 0 692.2 0C669 0 646 0 623 0C600 0 577 0 554 0C531 0 508 0 484.8 0C461.7 0 438.3 0 415.2 0C392 0 369 0 346 0C323 0 300 0 277 0C254 0 231 0 207.8 0C184.7 0 161.3 0 138.2 0C115 0 92 0 69 0C46 0 23 0 11.5 0L0 0Z" fill="#009473"></path><path d="M0 151L11.5 142C23 133 46 115 69 109C92 103 115 109 138.2 115C161.3 121 184.7 127 207.8 129C231 131 254 129 277 126C300 123 323 119 346 120C369 121 392 127 415.2 129C438.3 131 461.7 129 484.8 132C508 135 531 143 554 141C577 139 600 127 623 125C646 123 669 131 692.2 131C715.3 131 738.7 123 761.8 123C785 123 808 131 831 133C854 135 877 131 888.5 129L900 127L900 35L888.5 35C877 35 854 35 831 34C808 33 785 31 761.8 31C738.7 31 715.3 33 692.2 34C669 35 646 35 623 34C600 33 577 31 554 31C531 31 508 33 484.8 35C461.7 37 438.3 39 415.2 39C392 39 369 37 346 39C323 41 300 47 277 49C254 51 231 49 207.8 45C184.7 41 161.3 35 138.2 32C115 29 92 29 69 32C46 35 23 41 11.5 44L0 47Z" fill="#00624e"></path><path d="M0 223L11.5 212C23 201 46 179 69 170C92 161 115 165 138.2 169C161.3 173 184.7 177 207.8 183C231 189 254 197 277 195C300 193 323 181 346 184C369 187 392 205 415.2 208C438.3 211 461.7 199 484.8 195C508 191 531 195 554 198C577 201 600 203 623 201C646 199 669 193 692.2 194C715.3 195 738.7 203 761.8 207C785 211 808 211 831 207C854 203 877 195 888.5 191L900 187L900 125L888.5 127C877 129 854 133 831 131C808 129 785 121 761.8 121C738.7 121 715.3 129 692.2 129C669 129 646 121 623 123C600 125 577 137 554 139C531 141 508 133 484.8 130C461.7 127 438.3 129 415.2 127C392 125 369 119 346 118C323 117 300 121 277 124C254 127 231 129 207.8 127C184.7 125 161.3 119 138.2 113C115 107 92 101 69 107C46 113 23 131 11.5 140L0 149Z" fill="#01362a"></path><path d="M0 397L11.5 383C23 369 46 341 69 323C92 305 115 297 138.2 308C161.3 319 184.7 349 207.8 370C231 391 254 403 277 391C300 379 323 343 346 341C369 339 392 371 415.2 381C438.3 391 461.7 379 484.8 367C508 355 531 343 554 336C577 329 600 327 623 324C646 321 669 317 692.2 319C715.3 321 738.7 329 761.8 333C785 337 808 337 831 337C854 337 877 337 888.5 337L900 337L900 185L888.5 189C877 193 854 201 831 205C808 209 785 209 761.8 205C738.7 201 715.3 193 692.2 192C669 191 646 197 623 199C600 201 577 199 554 196C531 193 508 189 484.8 193C461.7 197 438.3 209 415.2 206C392 203 369 185 346 182C323 179 300 191 277 193C254 195 231 187 207.8 181C184.7 175 161.3 171 138.2 167C115 163 92 159 69 168C46 177 23 199 11.5 210L0 221Z" fill="#01251d"></path><path d="M0 433L11.5 422C23 411 46 389 69 373C92 357 115 347 138.2 358C161.3 369 184.7 401 207.8 420C231 439 254 445 277 435C300 425 323 399 346 401C369 403 392 433 415.2 438C438.3 443 461.7 423 484.8 408C508 393 531 383 554 379C577 375 600 377 623 375C646 373 669 367 692.2 366C715.3 365 738.7 369 761.8 371C785 373 808 373 831 375C854 377 877 381 888.5 383L900 385L900 335L888.5 335C877 335 854 335 831 335C808 335 785 335 761.8 331C738.7 327 715.3 319 692.2 317C669 315 646 319 623 322C600 325 577 327 554 334C531 341 508 353 484.8 365C461.7 377 438.3 389 415.2 379C392 369 369 337 346 339C323 341 300 377 277 389C254 401 231 389 207.8 368C184.7 347 161.3 317 138.2 306C115 295 92 303 69 321C46 339 23 367 11.5 381L0 395Z" fill="#01362a"></path><path d="M0 559L11.5 558C23 557 46 555 69 550C92 545 115 537 138.2 536C161.3 535 184.7 541 207.8 546C231 551 254 555 277 555C300 555 323 551 346 551C369 551 392 555 415.2 556C438.3 557 461.7 555 484.8 551C508 547 531 541 554 541C577 541 600 547 623 546C646 545 669 537 692.2 538C715.3 539 738.7 549 761.8 552C785 555 808 551 831 547C854 543 877 539 888.5 537L900 535L900 383L888.5 381C877 379 854 375 831 373C808 371 785 371 761.8 369C738.7 367 715.3 363 692.2 364C669 365 646 371 623 373C600 375 577 373 554 377C531 381 508 391 484.8 406C461.7 421 438.3 441 415.2 436C392 431 369 401 346 399C323 397 300 423 277 433C254 443 231 437 207.8 418C184.7 399 161.3 367 138.2 356C115 345 92 355 69 371C46 387 23 409 11.5 420L0 431Z" fill="#00624e"></path><path d="M0 601L11.5 601C23 601 46 601 69 601C92 601 115 601 138.2 601C161.3 601 184.7 601 207.8 601C231 601 254 601 277 601C300 601 323 601 346 601C369 601 392 601 415.2 601C438.3 601 461.7 601 484.8 601C508 601 531 601 554 601C577 601 600 601 623 601C646 601 669 601 692.2 601C715.3 601 738.7 601 761.8 601C785 601 808 601 831 601C854 601 877 601 888.5 601L900 601L900 533L888.5 535C877 537 854 541 831 545C808 549 785 553 761.8 550C738.7 547 715.3 537 692.2 536C669 535 646 543 623 544C600 545 577 539 554 539C531 539 508 545 484.8 549C461.7 553 438.3 555 415.2 554C392 553 369 549 346 549C323 549 300 553 277 553C254 553 231 549 207.8 544C184.7 539 161.3 533 138.2 534C115 535 92 543 69 548C46 553 23 555 11.5 556L0 557Z" fill="#009473"></path></svg>