<svg id="visual" viewBox="0 0 900 600" width="900" height="600" xmlns="http://www.w3.org/2000/svg" xmlns:xlink="http://www.w3.org/1999/xlink" version="1.1"><rect x="0" y="0" width="900" height="600" fill="#001829"></rect><g fill="none" stroke="#297EA6" stroke-width="4"><path d="M0 -111.4L25 -34.4L105.9 -34.4L40.5 13.1L65.5 90.1L0 42.5L-65.5 90.1L-40.5 13.1L-105.9 -34.4L-25 -34.4Z" transform="translate(303 233)"></path><path d="M0 -49.1L11 -15.2L46.7 -15.2L17.8 5.8L28.8 39.7L0 18.7L-28.8 39.7L-17.8 5.8L-46.7 -15.2L-11 -15.2Z" transform="translate(812 516)"></path><path d="M0 -107.6L24.2 -33.2L102.3 -33.2L39.1 12.7L63.2 87L0 41.1L-63.2 87L-39.1 12.7L-102.3 -33.2L-24.2 -33.2Z" transform="translate(23 105)"></path><path d="M0 -86.8L19.5 -26.8L82.6 -26.8L31.5 10.2L51 70.2L0 33.2L-51 70.2L-31.5 10.2L-82.6 -26.8L-19.5 -26.8Z" transform="translate(600 368)"></path></g></svg>