<svg id="visual" viewBox="0 0 900 600" width="900" height="600" xmlns="http://www.w3.org/2000/svg" xmlns:xlink="http://www.w3.org/1999/xlink" version="1.1"><rect x="0" y="0" width="900" height="600" fill="#002233"></rect><path d="M0 464L21.5 462.5C43 461 86 458 128.8 449.2C171.7 440.3 214.3 425.7 257.2 435.3C300 445 343 479 385.8 483.7C428.7 488.3 471.3 463.7 514.2 449.7C557 435.7 600 432.3 642.8 440.5C685.7 448.7 728.3 468.3 771.2 461C814 453.7 857 419.3 878.5 402.2L900 385L900 601L878.5 601C857 601 814 601 771.2 601C728.3 601 685.7 601 642.8 601C600 601 557 601 514.2 601C471.3 601 428.7 601 385.8 601C343 601 300 601 257.2 601C214.3 601 171.7 601 128.8 601C86 601 43 601 21.5 601L0 601Z" fill="#0066FF" stroke-linecap="round" stroke-linejoin="miter"></path></svg>