<svg id="visual" viewBox="0 0 900 600" width="900" height="600" xmlns="http://www.w3.org/2000/svg" xmlns:xlink="http://www.w3.org/1999/xlink" version="1.1"><rect x="0" y="0" width="900" height="600" fill="#002233"></rect><path d="M0 456L21.5 462C43 468 86 480 128.8 489.8C171.7 499.7 214.3 507.3 257.2 502.3C300 497.3 343 479.7 385.8 473.3C428.7 467 471.3 472 514.2 470C557 468 600 459 642.8 443C685.7 427 728.3 404 771.2 393.3C814 382.7 857 384.3 878.5 385.2L900 386L900 601L878.5 601C857 601 814 601 771.2 601C728.3 601 685.7 601 642.8 601C600 601 557 601 514.2 601C471.3 601 428.7 601 385.8 601C343 601 300 601 257.2 601C214.3 601 171.7 601 128.8 601C86 601 43 601 21.5 601L0 601Z" fill="#0066FF" stroke-linecap="round" stroke-linejoin="miter"></path></svg>