<svg id="visual" viewBox="0 0 900 600" width="900" height="600" xmlns="http://www.w3.org/2000/svg" xmlns:xlink="http://www.w3.org/1999/xlink" version="1.1"><rect x="0" y="0" width="900" height="600" fill="#002233"></rect><path d="M0 402L21.5 410.2C43 418.3 86 434.7 128.8 438.5C171.7 442.3 214.3 433.7 257.2 442.8C300 452 343 479 385.8 476.5C428.7 474 471.3 442 514.2 434.5C557 427 600 444 642.8 451C685.7 458 728.3 455 771.2 441.7C814 428.3 857 404.7 878.5 392.8L900 381L900 601L878.5 601C857 601 814 601 771.2 601C728.3 601 685.7 601 642.8 601C600 601 557 601 514.2 601C471.3 601 428.7 601 385.8 601C343 601 300 601 257.2 601C214.3 601 171.7 601 128.8 601C86 601 43 601 21.5 601L0 601Z" fill="#0066FF" stroke-linecap="round" stroke-linejoin="miter"></path></svg>