<svg id="visual" viewBox="0 0 900 600" width="900" height="600" xmlns="http://www.w3.org/2000/svg" xmlns:xlink="http://www.w3.org/1999/xlink" version="1.1"><rect x="0" y="0" width="900" height="600" fill="#002233"></rect><path d="M0 512L21.5 515C43 518 86 524 128.8 525.8C171.7 527.7 214.3 525.3 257.2 518.8C300 512.3 343 501.7 385.8 506C428.7 510.3 471.3 529.7 514.2 531.7C557 533.7 600 518.3 642.8 514.7C685.7 511 728.3 519 771.2 516.8C814 514.7 857 502.3 878.5 496.2L900 490L900 601L878.5 601C857 601 814 601 771.2 601C728.3 601 685.7 601 642.8 601C600 601 557 601 514.2 601C471.3 601 428.7 601 385.8 601C343 601 300 601 257.2 601C214.3 601 171.7 601 128.8 601C86 601 43 601 21.5 601L0 601Z" fill="#0066FF" stroke-linecap="round" stroke-linejoin="miter"></path></svg>