<svg id="visual" viewBox="0 0 960 540" width="960" height="540" xmlns="http://www.w3.org/2000/svg" xmlns:xlink="http://www.w3.org/1999/xlink" version="1.1"><path d="M814 540L811.7 522C809.3 504 804.7 468 802.5 432C800.3 396 800.7 360 808 324C815.3 288 829.7 252 834.2 216C838.7 180 833.3 144 829.8 108C826.3 72 824.7 36 823.8 18L823 0L960 0L960 18C960 36 960 72 960 108C960 144 960 180 960 216C960 252 960 288 960 324C960 360 960 396 960 432C960 468 960 504 960 522L960 540Z" fill="#0066FF" stroke-linecap="round" stroke-linejoin="miter"></path></svg>