<svg id="visual" viewBox="0 0 900 600" width="900" height="600" xmlns="http://www.w3.org/2000/svg" xmlns:xlink="http://www.w3.org/1999/xlink" version="1.1"><path d="M0 481L8.8 481.5C17.7 482 35.3 483 53 486.8C70.7 490.7 88.3 497.3 106 497.2C123.7 497 141.3 490 159 491.5C176.7 493 194.3 503 212 507.8C229.7 512.7 247.3 512.3 265 507C282.7 501.7 300.3 491.3 318 492.8C335.7 494.3 353.3 507.7 371 512.7C388.7 517.7 406.3 514.3 423.8 515C441.3 515.7 458.7 520.3 476.2 514.7C493.7 509 511.3 493 529 494.3C546.7 495.7 564.3 514.3 582 515.3C599.7 516.3 617.3 499.7 635 499C652.7 498.3 670.3 513.7 688 519.2C705.7 524.7 723.3 520.3 741 519C758.7 517.7 776.3 519.3 794 516.8C811.7 514.3 829.3 507.7 847 506.5C864.7 505.3 882.3 509.7 891.2 511.8L900 514L900 601L891.2 601C882.3 601 864.7 601 847 601C829.3 601 811.7 601 794 601C776.3 601 758.7 601 741 601C723.3 601 705.7 601 688 601C670.3 601 652.7 601 635 601C617.3 601 599.7 601 582 601C564.3 601 546.7 601 529 601C511.3 601 493.7 601 476.2 601C458.7 601 441.3 601 423.8 601C406.3 601 388.7 601 371 601C353.3 601 335.7 601 318 601C300.3 601 282.7 601 265 601C247.3 601 229.7 601 212 601C194.3 601 176.7 601 159 601C141.3 601 123.7 601 106 601C88.3 601 70.7 601 53 601C35.3 601 17.7 601 8.8 601L0 601Z" fill="#06182b" stroke-linecap="round" stroke-linejoin="miter"></path></svg>